<svg width="40" height="97" viewBox="0 0 40 97" fill="none" xmlns="http://www.w3.org/2000/svg">
<path fill-rule="evenodd" clip-rule="evenodd" d="M20.4463 77.6861C20.3838 77.6861 20.3235 77.6861 20.2621 77.6861V96.8174C20.3246 96.8775 20.3849 96.941 20.4473 97C20.555 96.8907 20.6627 96.7901 20.7703 96.6851V77.6796C20.6584 77.6807 20.5518 77.6861 20.4463 77.6861Z" fill="white"/>
<path fill-rule="evenodd" clip-rule="evenodd" d="M23.6871 93.623L22.6514 77.5527C22.4845 77.5713 22.3165 77.5921 22.1475 77.6074L23.2145 94.1412C23.3727 93.9685 23.531 93.7958 23.6882 93.6209L23.6871 93.623Z" fill="white"/>
<path fill-rule="evenodd" clip-rule="evenodd" d="M26.2443 90.6019L24.514 77.2559C24.3493 77.2919 24.1835 77.3225 24.0166 77.3531L25.8039 91.1463C25.9503 90.9648 26.0989 90.7855 26.2432 90.5997L26.2443 90.6019Z" fill="white"/>
<path fill-rule="evenodd" clip-rule="evenodd" d="M28.4644 87.6484L26.3325 76.7676C26.171 76.819 26.0095 76.8671 25.8459 76.9152L28.0585 88.2103C28.1931 88.0244 28.3298 87.8375 28.4644 87.6495V87.6484Z" fill="white"/>
<path fill-rule="evenodd" clip-rule="evenodd" d="M30.3798 84.7899L28.0886 76.1053C27.9314 76.172 27.7764 76.2398 27.6181 76.3043L30.0094 85.3649C30.1397 85.1725 30.2635 84.9812 30.3798 84.7899Z" fill="white"/>
<path fill-rule="evenodd" clip-rule="evenodd" d="M33.4559 79.4309L31.3649 74.3048C31.2239 74.4021 31.0785 74.4961 30.9343 74.5901L33.1501 80.0201C33.2578 79.8255 33.3557 79.6288 33.4569 79.432L33.4559 79.4309Z" fill="white"/>
<path fill-rule="evenodd" clip-rule="evenodd" d="M32.0368 82.0467L29.7758 75.2852C29.6261 75.3671 29.4743 75.448 29.3225 75.5267L31.6998 82.6326C31.814 82.438 31.9259 82.2413 32.0368 82.0445V82.0467Z" fill="white"/>
<path fill-rule="evenodd" clip-rule="evenodd" d="M34.6693 76.9443L32.839 73.1836C32.7054 73.2929 32.573 73.4022 32.4363 73.5115L34.3872 77.528L34.665 76.9399L34.6693 76.9443Z" fill="white"/>
<path fill-rule="evenodd" clip-rule="evenodd" d="M35.7008 74.5776L34.1999 71.9375C34.0772 72.061 33.9501 72.1835 33.8242 72.3037L35.4521 75.1658C35.5393 74.9712 35.6222 74.7744 35.7008 74.5776Z" fill="white"/>
<path fill-rule="evenodd" clip-rule="evenodd" d="M36.589 72.3429L35.4316 70.584C35.3239 70.7195 35.2044 70.8529 35.0881 70.9863L36.3651 72.9268C36.4447 72.7311 36.5147 72.5375 36.589 72.3429Z" fill="white"/>
<path fill-rule="evenodd" clip-rule="evenodd" d="M37.3427 70.228L36.5191 69.1348C36.4179 69.2823 36.3167 69.4277 36.2122 69.572L37.1425 70.8019C37.2092 70.6095 37.2781 70.4182 37.3427 70.228Z" fill="white"/>
<path fill-rule="evenodd" clip-rule="evenodd" d="M37.9833 68.2137L37.4655 67.6113C37.3782 67.7688 37.29 67.9262 37.1995 68.0803L37.8111 68.7887C37.8681 68.5952 37.9263 68.405 37.9833 68.2137Z" fill="white"/>
<path fill-rule="evenodd" clip-rule="evenodd" d="M38.5314 66.3098L38.259 66.0332C38.1847 66.1994 38.1093 66.3612 38.0297 66.5262L38.3753 66.8772C38.427 66.6869 38.4808 66.4978 38.5314 66.3098Z" fill="white"/>
<path fill-rule="evenodd" clip-rule="evenodd" d="M39.3799 62.8145C39.3389 62.9752 39.2926 63.1348 39.2463 63.2955L39.2679 63.313C39.3056 63.1468 39.3443 62.9817 39.3799 62.8145Z" fill="white"/>
<path fill-rule="evenodd" clip-rule="evenodd" d="M38.9954 64.4924L38.9028 64.4082C38.8436 64.5809 38.7779 64.7526 38.7144 64.9231L38.8598 65.0532C38.9061 64.8663 38.9524 64.6804 38.9954 64.4924Z" fill="white"/>
<path fill-rule="evenodd" clip-rule="evenodd" d="M1.5235 62.8534C1.56226 63.036 1.6064 63.2196 1.64624 63.4L1.671 63.3814C1.62148 63.2032 1.56872 63.0316 1.5235 62.8534Z" fill="white"/>
<path fill-rule="evenodd" clip-rule="evenodd" d="M2.01985 64.502L1.91864 64.5927C1.96386 64.7796 2.00801 64.9677 2.05538 65.1535L2.20827 65.0169C2.14259 64.8474 2.07799 64.6769 2.0177 64.5042L2.01985 64.502Z" fill="white"/>
<path fill-rule="evenodd" clip-rule="evenodd" d="M2.6777 66.125L2.3913 66.4158C2.44405 66.6038 2.49897 66.7918 2.54957 66.9799L2.90703 66.6169C2.83274 66.4551 2.75199 66.2912 2.6777 66.125Z" fill="white"/>
<path fill-rule="evenodd" clip-rule="evenodd" d="M4.43812 69.2285L3.59399 70.3458C3.65967 70.5393 3.7275 70.7306 3.79426 70.9241L4.7482 69.6636C4.63838 69.5193 4.53933 69.3761 4.43812 69.2285Z" fill="white"/>
<path fill-rule="evenodd" clip-rule="evenodd" d="M3.48311 67.7073L2.94476 68.3304C3.00398 68.5217 3.06105 68.7152 3.12026 68.9054L3.75228 68.1752C3.66076 68.0199 3.57247 67.8647 3.48311 67.7073Z" fill="white"/>
<path fill-rule="evenodd" clip-rule="evenodd" d="M5.53738 70.6758L4.35303 72.4719C4.42732 72.6676 4.50269 72.86 4.57913 73.0535L5.88192 71.0737C5.76564 70.9414 5.64936 70.8103 5.53631 70.6769L5.53738 70.6758Z" fill="white"/>
<path fill-rule="evenodd" clip-rule="evenodd" d="M6.77668 72.0234L5.2467 74.7149C5.32961 74.9117 5.41359 75.1052 5.49757 75.2998L7.15244 72.3897C7.02647 72.2694 6.90157 72.1437 6.77668 72.0234Z" fill="white"/>
<path fill-rule="evenodd" clip-rule="evenodd" d="M8.14731 73.2619L6.29218 77.0827C6.38369 77.2795 6.47736 77.473 6.56996 77.6698L8.55106 73.5899C8.41432 73.4805 8.27974 73.3712 8.14515 73.2619H8.14731Z" fill="white"/>
<path fill-rule="evenodd" clip-rule="evenodd" d="M9.63526 74.377L7.51526 79.573C7.61647 79.7698 7.71875 79.9644 7.82211 80.1612L10.0681 74.6612C9.92273 74.565 9.7763 74.4732 9.63526 74.377Z" fill="white"/>
<path fill-rule="evenodd" clip-rule="evenodd" d="M11.2352 75.3438L8.94513 82.1927C9.05639 82.3873 9.16944 82.5823 9.28428 82.7776L11.6885 75.5853C11.5313 75.5077 11.3817 75.4257 11.2352 75.3438Z" fill="white"/>
<path fill-rule="evenodd" clip-rule="evenodd" d="M12.9224 76.1582L10.6053 84.9367C10.7281 85.1302 10.8508 85.3215 10.9779 85.5118L13.3961 76.3517C13.2378 76.2905 13.0807 76.2249 12.9245 76.1582H12.9224Z" fill="white"/>
<path fill-rule="evenodd" clip-rule="evenodd" d="M16.511 77.2812L14.7657 90.7453C14.911 90.9268 15.0586 91.1061 15.205 91.2864L17.0084 77.3796C16.8415 77.349 16.6714 77.3151 16.511 77.2812Z" fill="white"/>
<path fill-rule="evenodd" clip-rule="evenodd" d="M14.686 76.8105L12.5327 87.7962C12.6662 87.9843 12.8018 88.169 12.9386 88.3559L15.1727 76.9526C15.009 76.9067 14.8497 76.8619 14.686 76.8105Z" fill="white"/>
<path fill-rule="evenodd" clip-rule="evenodd" d="M18.3758 77.5723L17.3314 93.7617C17.4886 93.9366 17.6447 94.1104 17.8052 94.2821L18.8819 77.6214C18.7117 77.6083 18.5448 77.5909 18.3758 77.5723Z" fill="white"/>
<path fill-rule="evenodd" clip-rule="evenodd" d="M20.7671 33.4196V0.369507C20.6594 0.245974 20.5518 0.121347 20.4441 0C20.3838 0.0601269 20.3246 0.120254 20.2621 0.179287V33.9892C20.4344 33.8033 20.6013 33.6109 20.7671 33.4196Z" fill="white"/>
<path fill-rule="evenodd" clip-rule="evenodd" d="M17.3455 3.20912L19.3912 34.8873C19.5516 34.7298 19.7142 34.5691 19.866 34.4062L17.8203 2.69531C17.662 2.86585 17.5037 3.03749 17.3465 3.21022L17.3455 3.20912Z" fill="white"/>
<path fill-rule="evenodd" clip-rule="evenodd" d="M14.7926 6.21411L18.6062 35.6282C18.7591 35.4893 18.9131 35.3505 19.0627 35.2095L15.234 5.67188C15.0855 5.85116 14.938 6.03263 14.7926 6.21411Z" fill="white"/>
<path fill-rule="evenodd" clip-rule="evenodd" d="M12.5703 9.14504L17.8816 36.2568C18.0302 36.1322 18.1777 36.0075 18.3231 35.8807L12.9762 8.58203C12.8395 8.76897 12.7049 8.95701 12.5703 9.14504Z" fill="white"/>
<path fill-rule="evenodd" clip-rule="evenodd" d="M10.6495 11.9852L17.2012 36.8099C17.3465 36.7006 17.4908 36.5826 17.6318 36.4656L11.0221 11.4102C10.8972 11.6015 10.7744 11.7939 10.6517 11.9852H10.6495Z" fill="white"/>
<path fill-rule="evenodd" clip-rule="evenodd" d="M7.56696 17.3114L15.9037 37.7491C16.0469 37.6518 16.1901 37.5556 16.3344 37.455L7.8792 16.7266C7.77153 16.9212 7.6714 17.1147 7.57126 17.3114H7.56696Z" fill="white"/>
<path fill-rule="evenodd" clip-rule="evenodd" d="M8.99139 14.7096L16.5454 37.301C16.6886 37.1916 16.8318 37.0921 16.9761 36.9839L9.33163 14.127L8.99139 14.7074V14.7096Z" fill="white"/>
<path fill-rule="evenodd" clip-rule="evenodd" d="M6.34705 19.7921L15.2706 38.1669C15.4138 38.0762 15.5592 37.9854 15.7013 37.8914L6.62483 19.2051C6.53009 19.3997 6.43749 19.5954 6.34705 19.7921Z" fill="white"/>
<path fill-rule="evenodd" clip-rule="evenodd" d="M5.30483 22.1439L14.6375 38.5564C14.7811 38.4711 14.9247 38.384 15.0682 38.2951L5.55031 21.5547C5.46633 21.7493 5.38558 21.9482 5.30267 22.145L5.30483 22.1439Z" fill="white"/>
<path fill-rule="evenodd" clip-rule="evenodd" d="M4.40906 24.3674L13.9916 38.9268C14.1402 38.8448 14.2866 38.7607 14.4352 38.6754L4.63732 23.7891C4.56195 23.9826 4.4855 24.1739 4.41121 24.3696L4.40906 24.3674Z" fill="white"/>
<path fill-rule="evenodd" clip-rule="evenodd" d="M3.64996 26.4848L13.3229 39.2853C13.4758 39.2065 13.6265 39.1246 13.7762 39.0426L3.84915 25.9043C3.78132 26.0956 3.71564 26.2913 3.64996 26.4848Z" fill="white"/>
<path fill-rule="evenodd" clip-rule="evenodd" d="M2.9964 28.4866L12.6231 39.6374C12.7813 39.562 12.9385 39.4822 13.0946 39.4046L3.17836 27.9258C3.11806 28.116 3.05562 28.304 2.9964 28.4943V28.4866Z" fill="white"/>
<path fill-rule="evenodd" clip-rule="evenodd" d="M2.44299 30.3927L11.8888 39.9835C12.0374 39.9102 12.1849 39.837 12.3367 39.7648L12.3722 39.7473L2.59911 29.8242C2.55066 30.0144 2.49575 30.2047 2.44299 30.3927Z" fill="white"/>
<path fill-rule="evenodd" clip-rule="evenodd" d="M1.56873 33.9397L10.3857 40.8105C10.5429 40.7143 10.699 40.6225 10.8595 40.5317L1.69147 33.3887C1.64948 33.5712 1.60964 33.7604 1.56873 33.9397Z" fill="white"/>
<path fill-rule="evenodd" clip-rule="evenodd" d="M1.97144 32.2093L11.1416 40.3734C11.2999 40.2859 11.4646 40.2029 11.6218 40.1187L2.11033 31.6484C2.06295 31.8343 2.01773 32.0212 1.97251 32.2082L1.97144 32.2093Z" fill="white"/>
<path fill-rule="evenodd" clip-rule="evenodd" d="M1.22632 35.6008L9.62448 41.2998C9.77737 41.197 9.93133 41.0964 10.0875 40.997L1.33399 35.0586C1.29846 35.2401 1.2597 35.4215 1.22632 35.6052V35.6008Z" fill="white"/>
<path fill-rule="evenodd" clip-rule="evenodd" d="M0.938843 37.1989L8.86003 41.8418C9.00861 41.7303 9.15863 41.6209 9.31009 41.5138L1.03359 36.6621C1.00129 36.8414 0.971143 37.0196 0.938843 37.1989Z" fill="white"/>
<path fill-rule="evenodd" clip-rule="evenodd" d="M0.698792 38.7431L8.09563 42.4469C8.24098 42.3278 8.38741 42.2108 8.53492 42.0949L0.782773 38.2129C0.755856 38.3911 0.726785 38.5671 0.702021 38.7453L0.698792 38.7431Z" fill="white"/>
<path fill-rule="evenodd" clip-rule="evenodd" d="M0.502825 40.2376L7.33333 43.1106C7.4733 42.9827 7.61327 42.8559 7.75431 42.7324L0.569579 39.7129C0.548046 39.8889 0.522205 40.0638 0.500671 40.2398L0.502825 40.2376Z" fill="white"/>
<path fill-rule="evenodd" clip-rule="evenodd" d="M0.342407 41.6973L6.57535 43.8465C6.70886 43.7099 6.84452 43.5765 6.98126 43.4442L0.398395 41.1758C0.379015 41.3507 0.359634 41.5234 0.342407 41.6973Z" fill="white"/>
<path fill-rule="evenodd" clip-rule="evenodd" d="M0.212097 43.1376L5.81625 44.6615C5.94223 44.5183 6.06928 44.374 6.19848 44.234L0.255165 42.6172C0.239014 42.7899 0.226094 42.9626 0.212097 43.1376Z" fill="white"/>
<path fill-rule="evenodd" clip-rule="evenodd" d="M0.0505981 45.9016L4.40149 46.4832C4.50916 46.3236 4.62436 46.1662 4.73849 46.0109L0.0721319 45.3867C0.0635184 45.5584 0.0570583 45.7289 0.0505981 45.9016Z" fill="white"/>
<path fill-rule="evenodd" clip-rule="evenodd" d="M0.118408 44.5191L5.10455 45.527C5.22298 45.375 5.34357 45.2242 5.46631 45.0766L0.150709 44.0042C0.138865 44.1769 0.129175 44.3485 0.118408 44.5213V44.5191Z" fill="white"/>
<path fill-rule="evenodd" clip-rule="evenodd" d="M0.012085 47.2707L3.73419 47.5232C3.83325 47.357 3.93661 47.1952 4.04105 47.0291L0.0217751 46.7579C0.0217751 46.9296 0.015315 47.1001 0.012085 47.2707Z" fill="white"/>
<path fill-rule="evenodd" clip-rule="evenodd" d="M0 48.4936V48.6358H3.11163C3.20099 48.463 3.29036 48.2925 3.3851 48.123H0C0 48.2477 0 48.3712 0 48.4958V48.4936Z" fill="white"/>
<path fill-rule="evenodd" clip-rule="evenodd" d="M0.0174684 50.0002L2.54661 49.8329C2.62413 49.6547 2.7038 49.4766 2.78563 49.3027L0.012085 49.4875C0.012085 49.6591 0.012085 49.8319 0.012085 50.0002H0.0174684Z" fill="white"/>
<path fill-rule="evenodd" clip-rule="evenodd" d="M0.062454 51.3709L2.04356 51.1052C2.10744 50.9223 2.17491 50.7401 2.24598 50.5586L0.0452271 50.8527C0.0516872 51.0287 0.0549172 51.2003 0.062454 51.3709Z" fill="white"/>
<path fill-rule="evenodd" clip-rule="evenodd" d="M0.135638 52.7544L1.61824 52.4549C1.67099 52.269 1.7259 52.0832 1.77974 51.8984L0.106567 52.2373C0.116258 52.4112 0.124871 52.5839 0.135638 52.7544Z" fill="white"/>
<path fill-rule="evenodd" clip-rule="evenodd" d="M0.237936 54.1608L1.28232 53.8766C1.31893 53.6886 1.35984 53.5005 1.40183 53.3125L0.197021 53.6405L0.237936 54.1608Z" fill="white"/>
<path fill-rule="evenodd" clip-rule="evenodd" d="M0.539433 57.056L0.913043 56.8986C0.921657 56.7084 0.931347 56.5182 0.945344 56.3301L0.473755 56.528C0.494212 56.7029 0.517899 56.8822 0.539433 57.056Z" fill="white"/>
<path fill-rule="evenodd" clip-rule="evenodd" d="M0.370402 55.5921L1.04225 55.3614C1.06594 55.1712 1.08963 54.9821 1.11762 54.793L0.315491 55.0684C0.338101 55.2444 0.352098 55.4183 0.370402 55.5921Z" fill="white"/>
<path fill-rule="evenodd" clip-rule="evenodd" d="M0.745041 58.563L0.902237 58.4843C0.895777 58.2962 0.892547 58.106 0.892547 57.918L0.666443 58.0273C0.69013 58.2088 0.719201 58.387 0.745041 58.563Z" fill="white"/>
<path fill-rule="evenodd" clip-rule="evenodd" d="M0.993779 60.117L1.01854 60.1017C0.998086 59.9159 0.981936 59.7289 0.964709 59.5409L0.901184 59.5781C0.930255 59.7573 0.962555 59.9377 0.993779 60.117Z" fill="white"/>
<path fill-rule="evenodd" clip-rule="evenodd" d="M23.1273 30.2016L25.8082 9.53C25.7005 9.15503 25.5724 8.78443 25.4421 8.41602L22.4899 31.1855C22.7106 30.8641 22.9216 30.5351 23.1273 30.2016Z" fill="white"/>
<path fill-rule="evenodd" clip-rule="evenodd" d="M25.103 26.2695L26.886 17.1718C26.886 17.0789 26.886 16.9892 26.886 16.8963C26.886 16.2294 26.8591 15.5669 26.8085 14.9121L24.1878 28.3117C24.5227 27.647 24.8263 26.9659 25.103 26.2695Z" fill="white"/>
<path fill-rule="evenodd" clip-rule="evenodd" d="M21.8169 32.1169L23.6064 4.39618C23.4578 4.13454 23.3056 3.87618 23.1499 3.62109L21.2646 32.822C21.4534 32.5895 21.6375 32.3545 21.8169 32.1169Z" fill="white"/>
<path fill-rule="evenodd" clip-rule="evenodd" d="M20.2621 66.2921V77.6823C20.3246 77.6823 20.3849 77.6823 20.4463 77.6823C20.5539 77.6823 20.6616 77.6823 20.7693 77.6823V66.5851C20.5991 66.4889 20.4301 66.3916 20.2643 66.291L20.2621 66.2921Z" fill="white"/>
<path fill-rule="evenodd" clip-rule="evenodd" d="M22.8484 67.6074L24.1092 77.337C24.2761 77.3042 24.4408 77.2704 24.6066 77.2343L23.3867 67.826C23.2058 67.7495 23.025 67.6829 22.8484 67.6074Z" fill="white"/>
<path fill-rule="evenodd" clip-rule="evenodd" d="M25.6866 68.5625L27.7183 76.2642C27.8765 76.1997 28.0337 76.1341 28.1888 76.0664L26.2443 68.6959C26.0569 68.6532 25.8707 68.6106 25.6844 68.5625H25.6866Z" fill="white"/>
<path fill-rule="evenodd" clip-rule="evenodd" d="M28.8132 69.1016L31.0269 74.5283C31.1723 74.4343 31.3154 74.337 31.4576 74.2397L29.3796 69.1464C29.1912 69.1344 29.0017 69.1191 28.8154 69.1016H28.8132Z" fill="white"/>
<path fill-rule="evenodd" clip-rule="evenodd" d="M32.1563 69.1321L33.9135 72.2215C34.0398 72.1006 34.1647 71.9774 34.2882 71.852L32.714 69.084C32.5289 69.1026 32.3437 69.1201 32.1585 69.1332L32.1563 69.1321Z" fill="white"/>
<path fill-rule="evenodd" clip-rule="evenodd" d="M14.9509 38.3691L14.7355 38.4941L14.7614 38.5401C14.8249 38.4831 14.8852 38.4305 14.9509 38.3691Z" fill="white"/>
<path fill-rule="evenodd" clip-rule="evenodd" d="M35.6115 68.5816L36.2854 69.4726C36.3931 69.3272 36.4911 69.1818 36.5902 69.0353L36.1401 68.4395C35.9657 68.4876 35.7902 68.5378 35.6115 68.5816Z" fill="white"/>
<path fill-rule="evenodd" clip-rule="evenodd" d="M14.0508 39.2099L13.872 38.9727L13.4177 39.2099L13.6976 39.5794C13.8139 39.4548 13.9323 39.3301 14.0529 39.2066L14.0508 39.2099Z" fill="white"/>
<path fill-rule="evenodd" clip-rule="evenodd" d="M13.0774 40.2931L12.4809 39.6875L12.0007 39.9258L12.7641 40.7009C12.8664 40.5632 12.9698 40.4265 13.0774 40.2931Z" fill="white"/>
<path fill-rule="evenodd" clip-rule="evenodd" d="M12.173 41.5556L10.8584 40.5312C10.7001 40.622 10.5429 40.716 10.3868 40.8122L11.9103 41.9994C11.9954 41.8508 12.0793 41.7032 12.173 41.5556Z" fill="white"/>
<path fill-rule="evenodd" clip-rule="evenodd" d="M11.4872 42.7903L9.31228 41.5156C9.16046 41.6249 9.00865 41.7343 8.86115 41.8436L11.274 43.2582C11.3429 43.103 11.414 42.9455 11.4893 42.7914L11.4872 42.7903Z" fill="white"/>
<path fill-rule="evenodd" clip-rule="evenodd" d="M10.9477 44.0768L7.75429 42.7344C7.61109 42.8579 7.47005 42.9847 7.33008 43.1104L10.783 44.5633C10.8336 44.4004 10.8918 44.2354 10.9477 44.0768Z" fill="white"/>
<path fill-rule="evenodd" clip-rule="evenodd" d="M10.5537 45.4033L6.21464 44.2227C6.08472 44.3633 5.95659 44.5054 5.83026 44.649L10.4417 45.9029C10.4751 45.7357 10.5139 45.5695 10.5494 45.4011L10.5537 45.4033Z" fill="white"/>
<path fill-rule="evenodd" clip-rule="evenodd" d="M10.3071 46.7562L4.73526 46.0117C4.62113 46.168 4.51131 46.3266 4.40149 46.4862L10.2522 47.2678C10.2673 47.0973 10.2877 46.9278 10.3093 46.7584L10.3071 46.7562Z" fill="white"/>
<path fill-rule="evenodd" clip-rule="evenodd" d="M10.2059 48.1212H3.38833C3.29358 48.2907 3.20313 48.4612 3.11377 48.635H10.2059V48.1212Z" fill="white"/>
<path fill-rule="evenodd" clip-rule="evenodd" d="M10.2339 49.4941L2.246 50.5622C2.17493 50.7415 2.10818 50.9251 2.04358 51.1088L10.2684 50.009C10.2544 49.833 10.2447 49.6658 10.2339 49.4941Z" fill="white"/>
<path fill-rule="evenodd" clip-rule="evenodd" d="M10.3524 50.877L1.40186 53.3115C1.35987 53.4985 1.31896 53.6865 1.28235 53.8767L10.4234 51.3908C10.3987 51.2191 10.376 51.0486 10.3556 50.877H10.3524Z" fill="white"/>
<path fill-rule="evenodd" clip-rule="evenodd" d="M10.5666 52.2831L0.945325 56.328C0.931328 56.516 0.921638 56.7062 0.913025 56.8976L10.6689 52.7947C10.6323 52.6263 10.5978 52.4558 10.5666 52.2831Z" fill="white"/>
<path fill-rule="evenodd" clip-rule="evenodd" d="M10.8885 53.7246L0.965759 59.5416C0.980833 59.7297 0.99806 59.9166 1.01959 60.1024L11.0328 54.2341C10.9843 54.0646 10.937 53.8952 10.8928 53.7246H10.8885Z" fill="white"/>
<path fill-rule="evenodd" clip-rule="evenodd" d="M11.3343 55.207L1.52136 62.853C1.56658 63.0312 1.61934 63.2072 1.66995 63.3832L11.5152 55.7132C11.4527 55.5459 11.3924 55.3765 11.3354 55.207H11.3343Z" fill="white"/>
<path fill-rule="evenodd" clip-rule="evenodd" d="M11.9264 56.7344L2.67877 66.124C2.75306 66.2902 2.82843 66.452 2.90811 66.6171L12.1482 57.2351C12.0729 57.07 11.9986 56.9027 11.9264 56.7344Z" fill="white"/>
<path fill-rule="evenodd" clip-rule="evenodd" d="M12.6856 58.3125L4.43597 69.2294C4.53718 69.3747 4.63947 69.5202 4.74606 69.6667L12.9569 58.8023C12.8654 58.6416 12.7749 58.4743 12.6877 58.3169L12.6856 58.3125Z" fill="white"/>
<path fill-rule="evenodd" clip-rule="evenodd" d="M13.6513 59.9316L6.77667 72.0226C6.90157 72.1461 7.02431 72.2686 7.15244 72.3888L13.9689 60.3984C13.862 60.2447 13.7561 60.0891 13.6513 59.9316Z" fill="white"/>
<path fill-rule="evenodd" clip-rule="evenodd" d="M14.854 61.5781L9.63422 74.3753C9.77526 74.4715 9.92277 74.5634 10.0649 74.6563L15.219 62.0198C15.0973 61.8733 14.9757 61.7268 14.854 61.5781Z" fill="white"/>
<path fill-rule="evenodd" clip-rule="evenodd" d="M16.3366 63.2218L12.9224 76.1578C13.0785 76.2245 13.2357 76.2901 13.394 76.3513L16.7522 63.6263C16.6112 63.4929 16.4723 63.3574 16.3355 63.2207L16.3366 63.2218Z" fill="white"/>
<path fill-rule="evenodd" clip-rule="evenodd" d="M18.1271 64.8164L16.5121 77.2791C16.6768 77.313 16.8426 77.3457 17.0095 77.3763L18.5912 65.1706C18.434 65.058 18.28 64.9378 18.1271 64.8164Z" fill="white"/>
<path fill-rule="evenodd" clip-rule="evenodd" d="M20.9362 58.8424L21.4605 66.9606C21.6338 67.0491 21.8072 67.1344 21.9848 67.2186L21.4465 58.8085C21.2796 58.8238 21.1117 58.8358 20.9426 58.8413L20.9362 58.8424Z" fill="white"/>
<path fill-rule="evenodd" clip-rule="evenodd" d="M22.3714 58.6792L24.2233 68.1279C24.4053 68.1891 24.5894 68.247 24.7724 68.3038L22.8667 58.5742C22.703 58.6147 22.5383 58.6486 22.3714 58.6792Z" fill="white"/>
<path fill-rule="evenodd" clip-rule="evenodd" d="M23.6871 58.3444L27.2122 68.8863C27.3996 68.9191 27.588 68.9475 27.7764 68.9759L24.1652 58.1738C24.008 58.234 23.8486 58.2897 23.6882 58.3433L23.6871 58.3444Z" fill="white"/>
<path fill-rule="evenodd" clip-rule="evenodd" d="M24.95 57.8357L30.4616 69.1833C30.5391 69.1833 30.6167 69.1833 30.6942 69.1833C30.8018 69.1833 30.9095 69.1833 31.0226 69.1768L25.4001 57.5996C25.2515 57.6794 25.1019 57.7592 24.949 57.8325L24.95 57.8357Z" fill="white"/>
<path fill-rule="evenodd" clip-rule="evenodd" d="M26.1291 57.1628L33.8748 68.9334C34.0567 68.9039 34.2387 68.8722 34.4185 68.8372L26.5447 56.873C26.4079 56.9725 26.268 57.0698 26.128 57.1639L26.1291 57.1628Z" fill="white"/>
<path fill-rule="evenodd" clip-rule="evenodd" d="M27.2122 56.3411L37.2577 67.9718C37.3482 67.8166 37.4397 67.6624 37.5258 67.505L27.588 56C27.4652 56.1181 27.3403 56.2329 27.2122 56.3433V56.3411Z" fill="white"/>
<path fill-rule="evenodd" clip-rule="evenodd" d="M28.1812 55.3845L38.7597 64.8048C38.8243 64.6332 38.8846 64.4604 38.9438 64.2866L28.5107 54.9943C28.4044 55.1276 28.295 55.2577 28.1823 55.3845H28.1812Z" fill="white"/>
<path fill-rule="evenodd" clip-rule="evenodd" d="M28.9478 54.4088L39.6199 61.6491C39.6555 61.4677 39.691 61.2851 39.7276 61.1025L29.2321 53.9824C29.1384 54.1256 29.0458 54.2678 28.9478 54.4088Z" fill="white"/>
<path fill-rule="evenodd" clip-rule="evenodd" d="M29.653 53.2397L39.9893 58.4172C39.9893 58.2291 40 58.0411 40 57.8509L29.8727 52.7794C29.8016 52.9357 29.7273 53.0888 29.6487 53.2397H29.653Z" fill="white"/>
<path fill-rule="evenodd" clip-rule="evenodd" d="M30.3636 51.502C30.313 51.6659 30.256 51.8299 30.2021 51.9873L39.8471 55.3118C39.8234 55.1216 39.7965 54.9314 39.7685 54.7422L30.3658 51.502H30.3636Z" fill="white"/>
<path fill-rule="evenodd" clip-rule="evenodd" d="M39.1064 51.8742L30.6781 50.1721C30.649 50.3415 30.6178 50.5088 30.5801 50.6749L39.27 52.4306C39.2183 52.2437 39.1623 52.0589 39.1085 51.8742H39.1064Z" fill="white"/>
<path fill-rule="evenodd" clip-rule="evenodd" d="M38.1061 49.292L30.8191 48.8066C30.8126 48.9794 30.8008 49.1488 30.7868 49.3183L38.3462 49.8212C38.2687 49.643 38.189 49.4669 38.1072 49.2909L38.1061 49.292Z" fill="white"/>
<path fill-rule="evenodd" clip-rule="evenodd" d="M36.8593 47.0312L30.7878 47.4346C30.8029 47.6041 30.8126 47.7746 30.8201 47.9462L37.164 47.5232C37.0649 47.357 36.9616 47.1952 36.8571 47.0291L36.8593 47.0312Z" fill="white"/>
<path fill-rule="evenodd" clip-rule="evenodd" d="M10.2113 48.9182C10.2113 49.0537 10.2201 49.1871 10.2267 49.3205H10.242C10.2299 49.1871 10.2179 49.0515 10.2113 48.9182Z" fill="white"/>
<path fill-rule="evenodd" clip-rule="evenodd" d="M35.4532 45.0995L30.5801 46.0835C30.6167 46.2496 30.649 46.4169 30.678 46.5863L35.8117 45.55C35.6943 45.3969 35.5748 45.246 35.4532 45.0995Z" fill="white"/>
<path fill-rule="evenodd" clip-rule="evenodd" d="M10.3502 50.168L10.2813 50.1822C10.2964 50.3535 10.3133 50.5244 10.3319 50.6949L10.4503 50.6709C10.4137 50.5047 10.3814 50.3374 10.3524 50.168H10.3502Z" fill="white"/>
<path fill-rule="evenodd" clip-rule="evenodd" d="M33.9555 43.4746L30.2 44.7701C30.2571 44.9308 30.3077 45.098 30.3615 45.2555L34.356 43.878C34.2225 43.7414 34.0901 43.608 33.9534 43.4746H33.9555Z" fill="white"/>
<path fill-rule="evenodd" clip-rule="evenodd" d="M10.6624 51.502L10.4471 51.5774C10.4718 51.749 10.5009 51.9196 10.5311 52.0912L10.8293 51.9884C10.7722 51.8277 10.7216 51.667 10.6678 51.5031L10.6624 51.502Z" fill="white"/>
<path fill-rule="evenodd" clip-rule="evenodd" d="M11.1512 52.7794L10.713 52.998C10.7518 53.1697 10.7927 53.3402 10.8347 53.5097L11.373 53.2375C11.2955 53.0866 11.2212 52.9325 11.1491 52.7772L11.1512 52.7794Z" fill="white"/>
<path fill-rule="evenodd" clip-rule="evenodd" d="M32.419 42.1311L29.6541 43.5151C29.7316 43.666 29.8059 43.8201 29.877 43.9753L32.8562 42.4831C32.713 42.364 32.5666 42.2459 32.4201 42.1289L32.419 42.1311Z" fill="white"/>
<path fill-rule="evenodd" clip-rule="evenodd" d="M11.8048 53.9824L11.0985 54.4612C11.1491 54.6318 11.2062 54.8013 11.2589 54.9696L12.0848 54.4088C11.9868 54.2689 11.8953 54.1267 11.8048 53.9824Z" fill="white"/>
<path fill-rule="evenodd" clip-rule="evenodd" d="M30.8805 41.0352L28.9478 42.347C29.0458 42.4869 29.1384 42.6291 29.2288 42.7745L31.3424 41.3413C31.1906 41.2319 31.0377 41.1357 30.8826 41.0362L30.8805 41.0352Z" fill="white"/>
<path fill-rule="evenodd" clip-rule="evenodd" d="M29.3645 40.1562L28.1005 41.2823C28.2157 41.4091 28.3244 41.537 28.4342 41.6693L29.8425 40.4153C29.6843 40.3279 29.526 40.2404 29.3656 40.1573L29.3645 40.1562Z" fill="white"/>
<path fill-rule="evenodd" clip-rule="evenodd" d="M12.5951 55.0872L11.6099 55.9618C11.676 56.1316 11.7434 56.2992 11.8123 56.4647L12.9299 55.4709C12.8151 55.3441 12.7038 55.2158 12.5962 55.0861L12.5951 55.0872Z" fill="white"/>
<path fill-rule="evenodd" clip-rule="evenodd" d="M13.5254 56.0801L12.2839 57.5187C12.3636 57.6849 12.4454 57.8467 12.5294 58.0129L13.9065 56.4201C13.7766 56.3108 13.6503 56.1978 13.5275 56.0811L13.5254 56.0801Z" fill="white"/>
<path fill-rule="evenodd" clip-rule="evenodd" d="M27.8797 39.463L27.126 40.3375C27.256 40.4468 27.3823 40.5598 27.505 40.6764L28.3664 39.6739C28.2059 39.6018 28.0434 39.5318 27.8797 39.463Z" fill="white"/>
<path fill-rule="evenodd" clip-rule="evenodd" d="M14.5751 56.9416L13.1431 59.1171C13.2393 59.2782 13.3369 59.4374 13.436 59.5949L14.9961 57.2248C14.8529 57.1329 14.7129 57.0378 14.5762 56.9395L14.5751 56.9416Z" fill="white"/>
<path fill-rule="evenodd" clip-rule="evenodd" d="M26.4327 38.9238L26.0332 39.5295C26.1764 39.6213 26.3164 39.7164 26.4531 39.8148L26.9279 39.0933C26.7632 39.0353 26.5974 38.9774 26.4327 38.9238Z" fill="white"/>
<path fill-rule="evenodd" clip-rule="evenodd" d="M15.7261 57.6582L14.2188 60.7553C14.3264 60.9094 14.4449 61.0603 14.5611 61.2101L16.1762 57.8856C16.0254 57.8145 15.8747 57.7369 15.7261 57.6582Z" fill="white"/>
<path fill-rule="evenodd" clip-rule="evenodd" d="M25.0212 38.5217L24.8489 38.8737C25.0018 38.9458 25.1536 39.0213 25.3022 39.1011L25.5175 38.6507C25.3538 38.6069 25.188 38.5654 25.0212 38.5217Z" fill="white"/>
<path fill-rule="evenodd" clip-rule="evenodd" d="M16.9589 58.2109L15.5592 62.4023C15.6895 62.5456 15.8187 62.6876 15.9522 62.8265L17.4402 58.376C17.2787 58.3246 17.1172 58.2667 16.9621 58.212L16.9589 58.2109Z" fill="white"/>
<path fill-rule="evenodd" clip-rule="evenodd" d="M23.6376 38.2385L23.5902 38.381C23.7517 38.4326 23.9132 38.4907 24.0683 38.5455L24.1404 38.3262C23.9746 38.2966 23.8056 38.2681 23.6376 38.2385Z" fill="white"/>
<path fill-rule="evenodd" clip-rule="evenodd" d="M22.3079 38.0645C22.4651 38.0919 22.6201 38.1247 22.7741 38.1587L22.7827 38.116C22.6244 38.0973 22.4683 38.0754 22.3079 38.0645Z" fill="white"/>
<path fill-rule="evenodd" clip-rule="evenodd" d="M18.2542 58.5977L17.1915 64.0276C17.3368 64.1577 17.4833 64.2845 17.6308 64.4092L18.7494 58.6971C18.5836 58.6676 18.4178 58.6348 18.2542 58.5977Z" fill="white"/>
<path fill-rule="evenodd" clip-rule="evenodd" d="M19.5871 58.8085L19.1511 65.5711C19.3115 65.6804 19.4741 65.7898 19.6366 65.8991L20.0921 58.8424C19.9209 58.8336 19.754 58.8227 19.5871 58.8085Z" fill="white"/>
<path fill-rule="evenodd" clip-rule="evenodd" d="M28.2016 48.3778C28.2016 48.2926 28.2016 48.2062 28.1952 48.1209H23.0831L28.0994 47.1086C28.0724 46.9392 28.0391 46.7719 28.0003 46.6057L22.9808 47.6202L27.7107 45.6306C27.6515 45.4699 27.5858 45.3124 27.5169 45.1561L22.7902 47.1447L27.0431 44.2586C26.9538 44.1132 26.859 43.9711 26.7621 43.8322L22.5038 46.7205L26.1236 43.0462C26.0095 42.9216 25.8889 42.8002 25.7662 42.6833L22.1507 46.3543L24.992 42.0383C24.8553 41.9388 24.7153 41.8437 24.5721 41.7529L21.7275 46.0744L23.686 41.2719C23.5331 41.202 23.3781 41.1353 23.2187 41.0751L21.2592 45.8755L22.2562 40.7789C22.0925 40.7395 21.9278 40.7067 21.7609 40.6783L20.7628 45.7716V40.5788C20.6788 40.5788 20.5949 40.5723 20.5098 40.5723C20.4247 40.5723 20.3408 40.5723 20.2568 40.5788V45.7749L19.2576 40.6783C19.0907 40.7056 18.926 40.7395 18.7623 40.7789L19.7615 45.8755L17.803 41.0762C17.6447 41.1364 17.4897 41.203 17.3368 41.273L19.2953 46.0733L16.4528 41.754C16.3096 41.8448 16.1697 41.9399 16.0329 42.0394L18.8754 46.3576L15.2577 42.6844C15.135 42.8013 15.0155 42.9227 14.9003 43.0473L18.5179 46.7205L14.2629 43.8344C14.1649 43.9733 14.0712 44.1154 13.9818 44.2608L18.2369 47.1469L13.5103 45.1583C13.4413 45.3135 13.3757 45.471 13.3164 45.6328L18.0442 47.6202L13.0268 46.6079C12.9881 46.7741 12.9558 46.9413 12.9278 47.1108L17.9473 48.1231H12.8309C12.8309 48.2084 12.8244 48.2947 12.8244 48.38C12.8244 48.4653 12.8244 48.5506 12.8309 48.6369H17.9484L12.9267 49.6514C12.9536 49.8209 12.987 49.9881 13.0257 50.1543L18.042 49.142L13.3154 51.1295C13.3746 51.2902 13.4403 51.4476 13.5092 51.6039L18.2369 49.6154L13.9808 52.5036C14.0701 52.649 14.1649 52.7911 14.2618 52.93L18.5125 50.045L14.897 53.716C15.0112 53.8406 15.1307 53.962 15.2545 54.0789L18.8743 50.4036L16.0297 54.725C16.1664 54.8245 16.3064 54.9196 16.4496 55.0104L19.2921 50.6922L17.3346 55.4914C17.4875 55.5614 17.6426 55.628 17.8009 55.6893L19.7593 50.89L18.7613 55.9844C18.9249 56.0238 19.0896 56.0566 19.2565 56.085L20.2557 50.9884V56.1845C20.3397 56.1845 20.4237 56.191 20.5087 56.191C20.5938 56.191 20.6778 56.191 20.7617 56.1845V50.9917L21.7587 56.0861C21.9256 56.0588 22.0904 56.0249 22.254 55.9855L21.257 50.8889L23.2166 55.6914C23.3749 55.6313 23.5299 55.5646 23.6828 55.4947L21.7254 50.6944L24.5678 55.0136C24.711 54.9229 24.851 54.8267 24.9877 54.7283L22.1453 50.4079L25.7629 54.0811C25.8857 53.9653 26.0052 53.8439 26.1204 53.7182L22.5027 50.0472L26.7557 52.9333C26.8536 52.7944 26.9473 52.6523 27.0367 52.5069L22.7816 49.6208L27.5093 51.6083C27.5782 51.453 27.6439 51.2956 27.7031 51.1349L22.9733 49.1453L27.9928 50.1576C28.0315 49.9914 28.0638 49.8242 28.0918 49.6547L23.0745 48.6402H28.1898C28.1898 48.5549 28.1963 48.4697 28.1963 48.3833L28.2016 48.3778Z" fill="white"/>
</svg>
