<svg version="1.2" xmlns="http://www.w3.org/2000/svg" viewBox="0 0 25 25" width="25" height="25">
	<title>socialfour-svg</title>
	<defs>
		<clipPath clipPathUnits="userSpaceOnUse" id="cp1">
			<path d="m3 2h19.69v19.69h-19.69z"/>
		</clipPath>
	</defs>
	<style>
		.s0 { fill: #ffffff } 
	</style>
	<g id="Clip-Path" clip-path="url(#cp1)">
		<g id="Layer">
			<path id="Layer" fill-rule="evenodd" class="s0" d="m22.1 12.7c0 0 0 3-0.4 4.4-0.2 0.8-0.8 1.4-1.6 1.7-1.5 0.3-7.3 0.3-7.3 0.3 0 0-5.7 0-7.2-0.4-0.8-0.2-1.4-0.8-1.6-1.6-0.4-1.4-0.4-4.4-0.4-4.4 0 0 0-3 0.4-4.5 0.2-0.8 0.8-1.4 1.6-1.6 1.5-0.4 7.2-0.4 7.2-0.4 0 0 5.8 0 7.3 0.4 0.8 0.2 1.4 0.8 1.6 1.6 0.4 1.5 0.4 4.5 0.4 4.5zm-6.3 0l-4.8-2.8v5.5z"/>
		</g>
	</g>
</svg>