<svg version="1.2" xmlns="http://www.w3.org/2000/svg" viewBox="0 0 25 25" width="25" height="25">
	<title>socialthree-svg</title>
	<defs>
		<clipPath clipPathUnits="userSpaceOnUse" id="cp1">
			<path d="m3 3h19v19h-19z"/>
		</clipPath>
	</defs>
	<style>
		.s0 { fill: #ffffff } 
	</style>
	<g id="Clip-Path" clip-path="url(#cp1)">
		<g id="Layer">
			<path id="Layer" fill-rule="evenodd" class="s0" d="m20.9 16.7c0.1 1.4-0.5 2.8-1.4 3.8-1 0.9-2.4 1.5-3.8 1.4-1.5 0.1-5.9 0.1-7.4 0-1.4 0.1-2.8-0.5-3.8-1.4-1-1-1.5-2.4-1.4-3.8-0.1-1.5-0.1-5.9 0-7.4-0.1-1.4 0.4-2.8 1.4-3.8 1-0.9 2.4-1.5 3.8-1.4 1.5-0.1 5.9-0.1 7.4 0 1.4-0.1 2.8 0.5 3.8 1.4 0.9 1 1.5 2.4 1.4 3.8 0.1 1.5 0.1 5.9 0 7.4zm-1.9 1.6c0.5-1.2 0.4-4 0.4-5.3 0-1.3 0.1-4.1-0.4-5.3q-0.2-0.6-0.7-1-0.4-0.5-1-0.7c-1.2-0.5-4-0.4-5.3-0.4-1.3 0-4.1-0.1-5.3 0.4q-0.6 0.2-1 0.7-0.5 0.4-0.7 1c-0.5 1.2-0.4 4-0.4 5.3 0 1.3-0.1 4.1 0.4 5.3q0.2 0.6 0.7 1 0.4 0.5 1 0.7c1.2 0.5 4 0.4 5.3 0.4 1.3 0 4.1 0.1 5.3-0.4q0.6-0.2 1-0.7 0.5-0.4 0.7-1zm-1.1-10.1q0 0.3-0.2 0.6-0.2 0.3-0.5 0.4-0.3 0.1-0.6 0.1-0.3-0.1-0.6-0.3-0.2-0.3-0.3-0.6 0-0.3 0.1-0.6 0.1-0.3 0.4-0.5 0.3-0.2 0.6-0.2 0.2 0 0.4 0.1 0.2 0.1 0.4 0.2 0.1 0.2 0.2 0.4 0.1 0.2 0.1 0.4zm-4.1 0.5q0.8 0.4 1.5 1 0.6 0.7 1 1.5 0.3 0.9 0.3 1.8c0 0.9-0.3 1.8-0.8 2.6-0.5 0.7-1.2 1.3-2 1.7-0.9 0.3-1.8 0.4-2.7 0.2-0.9-0.2-1.7-0.6-2.4-1.2-0.6-0.7-1-1.5-1.2-2.4-0.2-0.9-0.1-1.8 0.2-2.7 0.4-0.8 1-1.5 1.7-2 0.8-0.5 1.7-0.8 2.6-0.8q0.9 0 1.8 0.3zm0.3 6.4c0.6-0.5 0.9-1.3 0.9-2.1 0-0.6-0.2-1.2-0.5-1.7-0.3-0.5-0.8-0.8-1.4-1.1-0.5-0.2-1.1-0.3-1.7-0.1-0.6 0.1-1.1 0.4-1.5 0.8-0.4 0.4-0.7 0.9-0.8 1.5-0.2 0.6-0.1 1.2 0.1 1.8 0.3 0.5 0.6 1 1.1 1.3 0.5 0.3 1.1 0.5 1.7 0.5 0.8 0 1.6-0.3 2.1-0.9z"/>
		</g>
	</g>
</svg>