<svg version="1.2" xmlns="http://www.w3.org/2000/svg" viewBox="0 0 25 25" width="25" height="25">
	<title>socialtwo-svg</title>
	<style>
		.s0 { fill: #ffffff } 
	</style>
	<path id="Layer" class="s0" d="m7.3 9.2h-4v12.7h4z"/>
	<path id="Layer" class="s0" d="m18 9q-0.2-0.1-0.4-0.1c-2.3-0.1-3.5 1.3-3.9 1.8q-0.2 0.3-0.2 0.3v-1.7h-3.8v12.6h3.8 0.2q0-1.9 0-3.8 0-1.1 0-2.1c0-0.9-0.1-1.8 0.3-2.6 0.4-0.6 1-1 1.8-1 2.2 0 2.2 2 2.2 2.2q0 0 0 0v7.4h4v-8.3c0-2.8-1.4-4.5-4-4.7z"/>
	<path id="Layer" class="s0" d="m5.3 7.6c1.3 0 2.3-1 2.3-2.3 0-1.3-1-2.3-2.3-2.3-1.3 0-2.3 1-2.3 2.3 0 1.3 1 2.3 2.3 2.3z"/>
</svg>