<svg version="1.2" xmlns="http://www.w3.org/2000/svg" viewBox="0 0 25 25" width="25" height="25">
	<title>socialfive-svg</title>
	<defs>
		<clipPath clipPathUnits="userSpaceOnUse" id="cp1">
			<path d="m3 3.77h17.17v17.17h-17.17z"/>
		</clipPath>
	</defs>
	<style>
		.s0 { fill: #ffffff } 
	</style>
	<g id="Clip-Path" clip-path="url(#cp1)">
		<g id="Layer">
			<path id="Layer" fill-rule="evenodd" class="s0" d="m17.7 6.2c1.6 1.6 2.5 3.7 2.5 5.9 0 1.5-0.4 2.9-1.2 4.2-0.7 1.2-1.7 2.3-3 3-1.3 0.8-2.7 1.2-4.2 1.2-1.4 0-2.9-0.3-4.1-1l-4.7 1.4 1.5-4.4c-0.8-1.3-1.2-2.8-1.2-4.4 0-2.2 0.9-4.3 2.5-5.9 1.6-1.6 3.7-2.4 5.9-2.4 2.3 0 4.4 0.8 6 2.4zm-1.6 8.1c-0.1-0.1-0.2-0.2-0.4-0.3-0.2-0.1-1.3-0.6-1.5-0.7-0.2-0.1-0.3-0.1-0.4 0.1-0.2 0.2-0.6 0.7-0.8 0.8-0.1 0.1-0.2 0.1-0.4 0q-1-0.4-1.7-1.1-0.7-0.7-1.2-1.5c-0.1-0.2 0.1-0.4 0.2-0.5 0.1 0 0.2-0.2 0.3-0.3q0.1-0.2 0.2-0.4 0.1-0.1 0.1-0.2 0-0.1-0.1-0.1c0-0.1-0.4-1.2-0.6-1.6-0.1-0.5-0.3-0.5-0.5-0.5-0.1 0-0.2 0-0.4 0q-0.1 0-0.3 0.1-0.1 0.1-0.2 0.2-0.4 0.3-0.6 0.8-0.3 0.4-0.3 0.9c0.1 0.8 0.3 1.6 0.8 2.3 0.9 1.4 2.1 2.6 3.6 3.3 2.1 1 2.1 0.7 2.5 0.7q0.5-0.1 0.9-0.4 0.4-0.2 0.6-0.6 0.3-0.5 0.2-1z"/>
		</g>
	</g>
</svg>